<svg width="134" height="44" fill="none" xmlns="http://www.w3.org/2000/svg"><path d="M106.706 39.865c-.604 0-1.226-.012-1.848-.034-.644-.015-1.443-.436-1.625-1.586a17.037 17.037 0 0 1-.13-1.025c-.172-2.26-.346-4.53-.518-6.745a255.292 255.292 0 0 1-.434-6.782c-.11-2.077-.257-4.184-.128-6.262.038-.63.074-1.367.499-1.87.133-.159.302-.308.531-.468.881-.614 1.963-.953 2.985-1.246 1.158-.332 4.104-.848 4.962.153 2.469 2.88 1.441 3.609 2.244 2.358.217-.337.592-.535.992-.56.402-.024.807-.044 1.21-.06a45.433 45.433 0 0 0 1.772-.099c.033-.002.067-.003.101-.003h.237c.544 0 1.029.272 1.331.746.218.346.313.765.313 1.367a7.034 7.034 0 0 0 .022.714c.043 2.91.032 5.838-.033 8.704-.069 3.057 3.884 6.17 3.793 9.224-.016.517.045 1.503 0 2.019 0 2.019-5.446 1.418-6.714 1.37-1.006 0-1.803-.084-2.703-.084-.191 0-.394-.03-.64-.095-.531-.14-.934-.485-1.121-.956a8.427 8.427 0 0 1-.228-.59c-.097-.27-.197-.567-.296-.88a79.931 79.931 0 0 0-.264-.82c-.09-.27-.15-.465-.188-.608-.152-.472-.304-.945-.459-1.417.035.847.063 1.551.082 2.152.021.64.039 1.081.053 1.314.059 1.05-.592 1.615-1.169 1.78a5.16 5.16 0 0 1-.613.138c-.672.102-1.348.152-2.017.152h.001Z" fill="#0B0A0B"/><path d="M101.785 39.598c-1.612 0-3.795-.102-5.286-.598-.594-.198-1.34-1.1-1.499-1.5-.234-.575-3.196-1.42-3.003-2 .947-2.839 1-10.156 3.12-19.433.242-1.056.863-1.902 1.942-2.005 1.29-.124 2.952-.104 3.335-.085.562.024 1.138.085 1.709.182.544.092 1.091.197 1.627.312 2.183.427 1.604 2.598 1.349 4.206a193.223 193.223 0 0 0-1.19 9.294c-.341 3.293-.614 6.61-.714 9.919-.019.617-.201 1.077-.544 1.372a1.246 1.246 0 0 1-.846.336Z" fill="#141314"/><path d="M82.562 40.574a1.804 1.804 0 0 1-1.485-.876 2.32 2.32 0 0 1-.315-.862 4.04 4.04 0 0 1-.046-.597c-.055-3.622-.121-7.297-.197-10.922-.076-3.588-.15-7.27-.218-10.942v-.025c0-.149.004-.284.013-.415.012-.173.041-.358.088-.545a1.658 1.658 0 0 1 .535-.844c.114-.123.249-.223.4-.292.218-.102.488-.171.874-.223.268-.036.559-.067.866-.092.27-.02.532-.043.785-.066.306-.028.495-.04.63-.04.01 0 .113-.002.472-.042.322-.037.669-.062 1.028-.075.324-.01.63-.022.918-.033.892-.034 3.487-.19 5.287.055 1.329.18 1.86 1.447 1.807 2.787-.102 2.54-.504 5.612-.504 7.975 0 2 .5 3.5 1 5 .478.45-1.044.938-.988 1.554.168 2.063 2.136 4.124 2.234 6.192.029.654-.197 1.358-.746 1.754-2.364 1.729-9.47 1.87-12.438 1.574Z" fill="#141314"/><path d="M125.112 39.997c-.434 0-.768-.014-1.019-.042a4.752 4.752 0 0 1-1.183-.27 3.083 3.083 0 0 1-1.359-.99c-.02-.024-.037-.049-.055-.074a4.917 4.917 0 0 1-.679-1.476 24.81 24.81 0 0 1-.335-1.348 48.276 48.276 0 0 1-.836-4.716 63.444 63.444 0 0 1-.423-4.8 213.306 213.306 0 0 1-.155-4.5 521.267 521.267 0 0 1-.06-2.725c-.017-.914-.008-1.514.029-1.887l.005-.043c.02-.145.046-.29.078-.429.076-.328.247-.624.498-.86.325-.327.767-.584 1.315-.765.4-.132.853-.25 1.349-.354.486-.1.994-.182 1.514-.244a35.48 35.48 0 0 1 1.463-.144c.443-.034.865-.063 1.254-.088a21.74 21.74 0 0 0 .895-.068 82.86 82.86 0 0 1 2.356-.105l2.314-.069h.044c.651 0 1.224.31 1.546.835.202.313.3.687.3 1.14 0 .912.009 1.825.024 2.714.016.918.008 1.852-.024 2.776 0 .163-.012.323-.036.477a2.112 2.112 0 0 1-.214.658 1.793 1.793 0 0 1-1.435.981c-.415.076-.832.14-1.248.192.284.16.507.398.643.692l.021.047c.113.274.159.6.159 1.129v1.84c0 .25-.004.49-.013.714-.011.26-.012.348-.012.37 0 .065-.005.13-.017.196-.05.29-.135.617-.377.903-.108.134-.237.25-.382.342.241-.024.386-.04.473-.051.165-.042.336-.062.509-.062.542 0 1.042.257 1.339.688.03.043.056.088.08.134.139.27.201.584.201 1.015v.516c0 .071.004.278.024.854l.047 1.467.048 1.457c.015.435.023.71.024.872.017.18.02.364.011.551a2.092 2.092 0 0 1-.251.899l-.012.021c-.316.547-.77.774-1.095.869a4.392 4.392 0 0 0-.278.09c-.29.106-.656.19-1.152.262-.41.061-.876.117-1.382.164a48.43 48.43 0 0 1-1.575.124c-.533.034-1.06.064-1.568.088-.526.024-.98.036-1.387.036l-.001-.003Z" fill="#0B0A0B"/><path d="M91.73 38.431c-.167.022-.443.062-.83.118l-1.306.186c-.484.067-.996.14-1.534.22-.54.078-1.05.14-1.534.185-.484.045-.92.085-1.306.118-.388.034-.664.039-.83.017a.545.545 0 0 1-.497-.27.985.985 0 0 1-.135-.372 2.713 2.713 0 0 1-.03-.405c-.056-3.669-.122-7.315-.198-10.94-.076-3.623-.148-7.27-.218-10.938 0-.112.004-.22.011-.32.007-.102.024-.21.052-.322a.374.374 0 0 1 .103-.152c.042-.034.084-.073.124-.117.097-.045.27-.085.519-.118.249-.034.515-.062.798-.085.283-.022.55-.045.798-.067.25-.023.421-.034.519-.034C90 15 85.717 19 87 24c-.145 2.555 1.737 4.82 1.64 7.407.747-.224 1.497-.444 2.25-.658.753-.214 1.51-.377 2.27-.49.07-.022.176-.039.322-.05.145-.011.245.016.3.084.083.067.135.192.156.372.02.18.038.349.052.507.027.945.047 1.896.062 2.852l.041 2.887c0 .135.004.276.01.422a.972.972 0 0 1-.051.388.494.494 0 0 1-.156.237.692.692 0 0 1-.196.1c-.07.023-.197.051-.384.085a27.78 27.78 0 0 1-.6.102c-.215.034-.416.067-.602.1a3.485 3.485 0 0 0-.383.085l-.002.001ZM98.166 37.841a6.79 6.79 0 0 1-1.472-.371 3.49 3.49 0 0 1-.487-.27c-.214-.136-.356-.282-.425-.44a1.2 1.2 0 0 1-.062-.32 4.942 4.942 0 0 1-.02-.473c0-.17.003-.326.01-.473a7.77 7.77 0 0 0 .01-.354c.07-3.309.221-6.595.457-9.859.234-3.263.622-6.493 1.16-9.69.028-.224.084-.393.166-.506.055-.068.166-.096.332-.085.166.012.283.017.352.017.58.022 1.165.078 1.752.169-3.813 10.814 0 22.895-1.773 22.655ZM109.207 38.398c-.58.09-1.161.135-1.741.135-.581 0-1.161-.012-1.742-.034-.179 0-.294-.157-.342-.473a16.482 16.482 0 0 1-.114-.911c-.166-2.25-.331-4.48-.497-6.685a259.058 259.058 0 0 1-.415-6.685c-.041-.81-.076-1.62-.103-2.43-.028-.811-.042-1.61-.042-2.398v-.54c0-.225.007-.456.02-.692.014-.236.035-.456.062-.658.028-.203.07-.349.125-.44.055-.066.145-.145.269-.235a4.187 4.187 0 0 1 .829-.455c.139-.057.242-.096.311-.119.443-.18.892-.337 1.348-.473a7.39 7.39 0 0 1 1.368-.27c.111-.022.225-.028.342-.017a.548.548 0 0 1 .322.152c.166.158.37.49.611.996.242.507.481 1.059.716 1.654.234.597.452 1.177.653 1.739l.445 1.25c.374 1.057.743 2.11 1.11 3.156.366 1.047.728 2.1 1.088 3.157a488.89 488.89 0 0 0-.124-8.845 1.646 1.646 0 0 1 0-.372.774.774 0 0 1 .104-.338c.083-.156.2-.236.352-.236a45.013 45.013 0 0 1 1.752-.101 43.645 43.645 0 0 0 1.752-.101h.228c.083 0 .151.045.207.135.069.113.104.332.104.658s.007.57.02.726c.042 2.882.031 5.74-.031 8.576a187.67 187.67 0 0 1-.383 8.542 6.116 6.116 0 0 0-.032.523c-.007.236-.02.49-.041.76l-.062.776c-.021.248-.052.417-.093.507a.256.256 0 0 1-.115.101.321.321 0 0 1-.134.034c-.111 0-.322-.005-.632-.016-.311-.011-.646-.023-1.006-.034-.36-.011-.698-.023-1.015-.034-.318-.011-.526-.017-.622-.017-.07 0-.166-.017-.291-.05-.124-.035-.2-.096-.228-.186a7.168 7.168 0 0 1-.197-.524c-.09-.259-.179-.534-.269-.827-.09-.292-.176-.568-.259-.827a9.636 9.636 0 0 1-.166-.557 349.405 349.405 0 0 0-1.606-5.03c-.546-1.666-1.11-3.32-1.69-4.963.013.27.031.725.052 1.367.021.641.048 1.38.083 2.212.035.832.073 1.716.115 2.65.041.934.079 1.823.114 2.667.034.845.062 1.587.083 2.228.021.641.038 1.087.052 1.334.013.248-.056.394-.208.439a3.441 3.441 0 0 1-.435.101l-.002-.002ZM125.872 38.566a22.32 22.32 0 0 1-1.15.034c-.339 0-.591-.011-.757-.034a2.58 2.58 0 0 1-.726-.186c-.249-.1-.47-.287-.664-.557a3.858 3.858 0 0 1-.445-1.097 24.535 24.535 0 0 1-.28-1.266 50.924 50.924 0 0 1-.715-4.524 68.066 68.066 0 0 1-.363-4.625 293.231 293.231 0 0 1-.135-4.39c-.021-.945-.038-1.834-.052-2.667-.014-.833-.007-1.407.021-1.722.013-.112.031-.22.052-.321a.474.474 0 0 1 .135-.253c.151-.18.38-.326.684-.439a8.65 8.65 0 0 1 1.036-.303c.387-.09.792-.163 1.213-.22.422-.056.83-.101 1.223-.135-5.949 11.639 5.681 21.298.923 22.705Z" fill="#E67330"/><path d="m92.526 38.43-.83.119c-.387.055-.822.118-1.305.185-.484.068-.996.14-1.535.22-.538.08-1.05.14-1.533.186-.484.045-.92.085-1.307.118-.387.034-.663.039-.829.017a.545.545 0 0 1-.497-.27.985.985 0 0 1-.135-.372 2.713 2.713 0 0 1-.03-.405c-.057-3.669-.122-7.315-.198-10.94-.076-3.623-.148-7.27-.218-10.938 0-.112.004-.22.011-.321.007-.101.024-.208.051-.321a.374.374 0 0 1 .104-.152c.042-.034.083-.073.124-.118.097-.045.27-.084.519-.118.249-.034.514-.06.798-.084.283-.023.55-.045.798-.067.25-.023.421-.034.519-.034.11 0 .314-.017.611-.05.297-.035.608-.057.933-.068.325-.01.633-.022.923-.034.29-.01.49-.005.6.017.097 0 .166.056.208.168.027.067.031.202.01.405-.02.202-.03.349-.03.439a584.22 584.22 0 0 0-.488 7.68 392.112 392.112 0 0 0-.362 7.715 157.01 157.01 0 0 1 2.249-.658 17.94 17.94 0 0 1 2.27-.49c.07-.022.176-.039.322-.05.145-.011.245.016.3.084.083.067.135.192.156.372.02.18.038.349.051.507.028.945.048 1.896.062 2.852l.042 2.887c0 .135.004.276.01.422a.974.974 0 0 1-.052.388.494.494 0 0 1-.155.236.692.692 0 0 1-.197.102c-.069.022-.196.05-.383.084a28.41 28.41 0 0 1-.601.101c-.215.034-.415.068-.6.102a3.485 3.485 0 0 0-.385.084h-.001ZM101.203 38.161c0 .139-.545.078-.756.039-.484-.045-.975-.14-1.472-.207a6.795 6.795 0 0 1-1.472-.372 3.49 3.49 0 0 1-.487-.27c-.215-.135-.357-.281-.426-.439a1.2 1.2 0 0 1-.062-.32 4.945 4.945 0 0 1-.02-.474c0-.169.003-.326.01-.472a7.77 7.77 0 0 0 .011-.355c.07-3.308.22-6.595.456-9.858.235-3.264.622-6.494 1.161-9.69.028-.225.083-.393.166-.507.055-.067.166-.095.331-.085.166.012.283.017.353.017.58.023 1.164.079 1.752.17.587.09 1.171.19 1.752.303.096.022.196.045.3.067a.8.8 0 0 1 .28.118.586.586 0 0 1 .197.236.648.648 0 0 1 .031.389l-.166.945-.166.946c-.525 3.106-.967 6.229-1.326 9.368-.36 3.14-.615 6.32-.767 9.538-.015.113.624.039.617.252-.007.214-.228.279-.297.324v.337ZM110.004 38.398c-.581.09-1.161.135-1.741.135-.581 0-1.161-.012-1.742-.034-.18 0-.294-.157-.342-.473a16.482 16.482 0 0 1-.114-.912c-.166-2.25-.331-4.479-.497-6.684a259.086 259.086 0 0 1-.415-6.685c-.042-.81-.076-1.62-.104-2.43-.027-.811-.041-1.61-.041-2.398v-.54c0-.225.007-.456.02-.692.014-.236.035-.456.062-.658.028-.203.069-.349.124-.44.055-.066.146-.145.27-.236a4.187 4.187 0 0 1 .829-.455 5.34 5.34 0 0 1 .311-.118c.442-.18.892-.337 1.348-.473a7.39 7.39 0 0 1 1.368-.27c.111-.022.225-.028.342-.017a.548.548 0 0 1 .322.152c.166.158.369.49.611.996a25.4 25.4 0 0 1 .715 1.654c.235.597.453 1.177.654 1.739l.445 1.25c.373 1.057.743 2.11 1.11 3.156.366 1.047.728 2.1 1.088 3.157a488.89 488.89 0 0 0-.124-8.846 1.646 1.646 0 0 1 0-.371.787.787 0 0 1 .103-.338c.084-.157.201-.236.353-.236a45.096 45.096 0 0 1 1.752-.101 43.675 43.675 0 0 0 1.752-.102h.228c.083 0 .151.046.207.136.069.113.104.332.104.658s.007.57.02.726c.042 2.881.031 5.74-.031 8.576-.062 2.836-.19 5.683-.384 8.542a6.215 6.215 0 0 0-.031.523c-.007.236-.02.49-.041.76l-.062.776c-.021.248-.052.417-.093.507a.262.262 0 0 1-.115.101.321.321 0 0 1-.134.034c-.111 0-.322-.005-.632-.017l-1.006-.034c-.36-.01-.698-.022-1.016-.033-.318-.011-.525-.017-.622-.017a1.19 1.19 0 0 1-.29-.05c-.124-.035-.2-.096-.228-.187a6.73 6.73 0 0 1-.197-.523c-.09-.259-.18-.534-.269-.827a76.44 76.44 0 0 0-.259-.827 9.633 9.633 0 0 1-.166-.557 349.791 349.791 0 0 0-1.606-5.03c-.546-1.666-1.11-3.32-1.69-4.964.013.27.031.726.052 1.368.021.641.048 1.38.083 2.212.035.832.073 1.716.115 2.65.041.934.079 1.823.114 2.667.034.844.062 1.587.083 2.228.02.641.038 1.087.052 1.334.013.248-.056.394-.208.439a3.423 3.423 0 0 1-.435.1l-.002-.001ZM131.251 38.026c-.166.067-.418.13-.757.186a19.76 19.76 0 0 1-1.14.152 36.73 36.73 0 0 1-1.338.117c-.469.035-.918.062-1.347.085-.429.023-.812.034-1.151.034-.338 0-.591-.011-.756-.034a2.58 2.58 0 0 1-.726-.186c-.249-.1-.47-.287-.664-.557a3.829 3.829 0 0 1-.445-1.097 24.535 24.535 0 0 1-.28-1.266 51.3 51.3 0 0 1-.716-4.524 68.071 68.071 0 0 1-.362-4.625 235.171 235.171 0 0 1-.135-4.39c-.021-.945-.038-1.834-.052-2.667-.014-.833-.007-1.407.021-1.722.013-.112.031-.22.052-.321a.48.48 0 0 1 .134-.253c.152-.18.381-.326.685-.439a8.632 8.632 0 0 1 1.036-.303c.387-.09.792-.163 1.213-.22.422-.056.83-.101 1.223-.136.394-.033.753-.06 1.079-.084.324-.022.584-.045.777-.067.677-.045 1.35-.08 2.021-.101l2.021-.068c.139 0 .242.068.311.203.07.112.104.282.104.506 0 .901.007 1.795.021 2.685.013.889.007 1.784-.021 2.684 0 .113-.007.22-.02.32a1.028 1.028 0 0 1-.084.288c-.083.18-.194.27-.331.27-.871.18-1.739.293-2.602.338-.864.045-1.731.056-2.602.034 0 .72.021 1.43.063 2.126.566-.022 1.122-.044 1.668-.067a40.703 40.703 0 0 1 1.669-.034c.069 0 .135.012.197.034a.223.223 0 0 1 .134.135c.042.113.062.338.062.675v1.807c0 .236-.003.456-.01.659-.007.202-.011.337-.011.404-.028.181-.062.293-.103.338-.042.067-.094.101-.156.101h-.768c-.283 0-.587.006-.912.017-.325.011-.629.022-.911.034a3.754 3.754 0 0 0-.57.05c.069.405.12.81.156 1.216.034.404.086.81.155 1.215.138-.023.414-.05.829-.085.415-.034.857-.067 1.327-.101.469-.034.912-.073 1.326-.118.415-.045.691-.079.83-.101a.464.464 0 0 1 .176-.034c.062 0 .114.034.156.101.041.09.062.248.062.473v.507c0 .135.007.428.02.877l.042 1.435c.013.507.028.985.042 1.435.013.45.02.743.02.878.013.135.017.276.011.422a.978.978 0 0 1-.093.388c-.07.135-.156.22-.259.253a5.005 5.005 0 0 0-.322.118h.001Z" fill="#fff"/><path d="m93.159 38.43-.83.119c-.387.055-.822.118-1.306.185-.483.068-.995.14-1.534.22-.538.08-1.05.14-1.534.186-.483.045-.92.085-1.306.118-.387.034-.663.039-.83.017a.545.545 0 0 1-.496-.27.985.985 0 0 1-.135-.372 2.713 2.713 0 0 1-.031-.405c-.056-3.669-.121-7.315-.197-10.94-.076-3.623-.149-7.27-.218-10.938 0-.112.004-.22.01-.321.008-.101.025-.208.052-.321a.374.374 0 0 1 .104-.152c.041-.034.083-.073.124-.118.097-.045.27-.084.518-.118.25-.034.515-.06.799-.084.283-.023.55-.045.798-.067.25-.023.421-.034.518-.034.111 0 .315-.017.612-.05.297-.035.608-.057.933-.068.325-.01.633-.022.922-.034.291-.01.49-.005.601.017.097 0 .166.056.208.168.027.067.03.202.01.405-.02.202-.03.349-.03.439-.18 2.565-.343 5.126-.488 7.68a390.573 390.573 0 0 0-.363 7.715c.747-.225 1.496-.444 2.25-.658.753-.214 1.51-.377 2.27-.49.069-.022.176-.039.321-.05.146-.011.246.016.3.084.084.067.136.192.157.372.02.18.038.349.051.507.028.945.048 1.896.062 2.852l.042 2.887c0 .135.003.276.01.422a.974.974 0 0 1-.052.388.494.494 0 0 1-.155.236.692.692 0 0 1-.197.102c-.069.022-.197.05-.383.084-.187.034-.387.067-.601.101-.215.034-.415.068-.601.102a3.485 3.485 0 0 0-.384.084h-.001Z" fill="url(#a)"/><path d="M101.37 38.127c-.069.068-.166.08-.29.034a35.314 35.314 0 0 1-1.472-.168 6.794 6.794 0 0 1-1.472-.372 3.485 3.485 0 0 1-.488-.27c-.214-.135-.356-.281-.425-.439a1.2 1.2 0 0 1-.062-.32 4.945 4.945 0 0 1-.02-.474c0-.169.003-.326.01-.472.007-.146.01-.265.01-.355.07-3.308.221-6.595.457-9.858.235-3.264.622-6.494 1.16-9.69.028-.225.084-.393.167-.507.055-.067.165-.095.331-.085.166.012.283.017.353.017.58.023 1.164.079 1.752.17.587.09 1.171.19 1.752.303.096.022.196.045.3.067a.8.8 0 0 1 .28.118.586.586 0 0 1 .197.236.648.648 0 0 1 .031.389l-.166.945-.166.946c-.525 3.106-.967 6.229-1.326 9.368-.36 3.14-.615 6.32-.768 9.538a5.872 5.872 0 0 0-.031.49c-.007.214-.045.343-.114.388v.001Z" fill="url(#b)"/><path d="M110.637 38.398a11.32 11.32 0 0 1-1.742.135c-.58 0-1.16-.012-1.741-.034-.18 0-.294-.157-.342-.473a14.765 14.765 0 0 1-.114-.912c-.166-2.25-.332-4.479-.497-6.684a259.086 259.086 0 0 1-.415-6.685c-.042-.81-.076-1.62-.104-2.43-.027-.811-.041-1.61-.041-2.398v-.54c0-.225.007-.456.02-.692a8.51 8.51 0 0 1 .062-.658c.028-.203.069-.349.124-.44.055-.066.146-.145.27-.236a4.187 4.187 0 0 1 .829-.455 5.34 5.34 0 0 1 .311-.118c.442-.18.892-.337 1.348-.473a7.39 7.39 0 0 1 1.368-.27c.111-.022.224-.028.342-.017a.55.55 0 0 1 .322.152c.165.158.369.49.611.996.242.507.48 1.059.715 1.654.235.597.453 1.177.653 1.739l.446 1.25c.373 1.057.743 2.11 1.109 3.156.367 1.047.729 2.1 1.089 3.157a488.89 488.89 0 0 0-.124-8.846 1.537 1.537 0 0 1 0-.371.787.787 0 0 1 .103-.338c.083-.157.201-.236.353-.236.58-.045 1.164-.079 1.752-.101a43.675 43.675 0 0 0 1.752-.102h.227c.084 0 .152.046.208.136.069.113.103.332.103.658s.008.57.021.726c.042 2.881.031 5.74-.031 8.576a187.69 187.69 0 0 1-.384 8.542 6.215 6.215 0 0 0-.031.523c-.007.236-.02.49-.041.76l-.062.776c-.021.248-.052.417-.094.507a.254.254 0 0 1-.114.101.325.325 0 0 1-.135.034c-.11 0-.321-.005-.631-.017l-1.006-.034c-.36-.01-.698-.022-1.016-.033-.318-.011-.525-.017-.622-.017-.069 0-.166-.017-.29-.05-.124-.035-.201-.096-.228-.187a6.73 6.73 0 0 1-.197-.523c-.09-.259-.18-.534-.269-.827l-.259-.827a9.633 9.633 0 0 1-.166-.557 362.796 362.796 0 0 0-1.606-5.03c-.546-1.666-1.11-3.32-1.69-4.964.013.27.031.726.052 1.368.02.641.048 1.38.083 2.212l.114 2.65c.042.934.079 1.823.115 2.667.034.844.062 1.587.083 2.228.02.641.038 1.087.051 1.334.014.248-.055.394-.207.439a3.463 3.463 0 0 1-.435.1l-.002-.001Z" fill="url(#c)"/><path d="M131.884 38.026c-.166.067-.419.13-.757.186-.339.056-.719.107-1.141.152-.421.045-.867.084-1.337.117a73.93 73.93 0 0 1-1.347.085c-.429.023-.812.034-1.151.034-.338 0-.591-.011-.756-.034a2.58 2.58 0 0 1-.726-.186c-.249-.1-.471-.287-.664-.557a3.859 3.859 0 0 1-.446-1.097 26.828 26.828 0 0 1-.28-1.266 51.298 51.298 0 0 1-.715-4.524 68.071 68.071 0 0 1-.362-4.625 235.171 235.171 0 0 1-.135-4.39c-.021-.945-.038-1.834-.052-2.667-.014-.833-.007-1.407.02-1.722a3.65 3.65 0 0 1 .053-.321.48.48 0 0 1 .134-.253c.152-.18.38-.326.684-.439.304-.112.65-.214 1.037-.303.387-.09.791-.163 1.213-.22.422-.056.83-.101 1.223-.136.394-.033.753-.06 1.078-.084.325-.022.584-.045.778-.067.677-.045 1.35-.08 2.021-.101l2.021-.068c.138 0 .242.068.311.203.069.112.104.282.104.506 0 .901.007 1.795.02 2.685a58.7 58.7 0 0 1-.02 2.684c0 .113-.007.22-.021.32a.994.994 0 0 1-.083.288c-.083.18-.194.27-.331.27-.871.18-1.739.293-2.602.338-.864.045-1.731.056-2.602.034 0 .72.021 1.43.062 2.126.567-.022 1.123-.044 1.669-.067a40.703 40.703 0 0 1 1.669-.034c.069 0 .134.012.196.034a.224.224 0 0 1 .135.135c.042.113.062.338.062.675v1.807c0 .236-.003.456-.01.659-.007.202-.011.337-.011.404-.028.181-.062.293-.104.338-.041.067-.093.101-.155.101h-.768c-.283 0-.587.006-.912.017-.325.011-.629.022-.912.034a3.751 3.751 0 0 0-.569.05c.069.405.12.81.155 1.216.035.404.086.81.156 1.215.138-.023.414-.05.829-.085.415-.034.857-.067 1.327-.101.469-.034.911-.073 1.326-.118.415-.045.691-.079.83-.101a.464.464 0 0 1 .176-.034c.062 0 .114.034.156.101.041.09.062.248.062.473v.507c0 .135.007.428.02.877l.042 1.435c.013.507.027.985.041 1.435.014.45.021.743.021.878.013.135.017.276.01.422a.978.978 0 0 1-.093.388c-.069.135-.156.22-.258.253a5.005 5.005 0 0 0-.322.118h.001Z" fill="url(#d)"/><g style="mix-blend-mode:overlay" opacity=".5" fill="#FF8500"><path d="m93.159 38.43-.83.119c-.387.055-.822.118-1.306.185-.483.068-.995.14-1.534.22-.538.08-1.05.14-1.534.186-.483.045-.92.085-1.306.118-.387.034-.663.039-.83.017a.545.545 0 0 1-.496-.27.985.985 0 0 1-.135-.372 2.713 2.713 0 0 1-.031-.405c-.056-3.669-.121-7.315-.197-10.94-.076-3.623-.149-7.27-.218-10.938 0-.112.004-.22.01-.321.008-.101.025-.208.052-.321a.374.374 0 0 1 .104-.152c.041-.034.083-.073.124-.118.097-.045.27-.084.518-.118.25-.034.515-.06.799-.084.283-.023.55-.045.798-.067.25-.023.421-.034.518-.034.111 0 .315-.017.612-.05.297-.035.608-.057.933-.068.325-.01.633-.022.922-.034.291-.01.49-.005.601.017.097 0 .166.056.208.168.027.067.03.202.01.405-.02.202-.03.349-.03.439-.18 2.565-.343 5.126-.488 7.68a390.573 390.573 0 0 0-.363 7.715c.747-.225 1.496-.444 2.25-.658.753-.214 1.51-.377 2.27-.49.069-.022.176-.039.321-.05.146-.011.246.016.3.084.084.067.136.192.157.372.02.18.038.349.051.507.028.945.048 1.896.062 2.852l.042 2.887c0 .135.003.276.01.422a.974.974 0 0 1-.052.388.494.494 0 0 1-.155.236.692.692 0 0 1-.197.102c-.069.022-.197.05-.383.084-.187.034-.387.067-.601.101-.215.034-.415.068-.601.102a3.485 3.485 0 0 0-.384.084h-.001ZM101.37 38.127c-.069.068-.166.08-.29.034a35.314 35.314 0 0 1-1.472-.168 6.794 6.794 0 0 1-1.472-.372 3.485 3.485 0 0 1-.488-.27c-.214-.135-.356-.281-.425-.439a1.2 1.2 0 0 1-.062-.32 4.945 4.945 0 0 1-.02-.474c0-.169.003-.326.01-.472.007-.146.01-.265.01-.355.07-3.308.221-6.595.457-9.858.235-3.264.622-6.494 1.16-9.69.028-.225.084-.393.167-.507.055-.067.165-.095.331-.085.166.012.283.017.353.017.58.023 1.164.079 1.752.17.587.09 1.171.19 1.752.303.096.022.196.045.3.067a.8.8 0 0 1 .28.118.586.586 0 0 1 .197.236.648.648 0 0 1 .031.389l-.166.945-.166.946c-.525 3.106-.967 6.229-1.326 9.368-.36 3.14-.615 6.32-.768 9.538a5.872 5.872 0 0 0-.031.49c-.007.214-.045.343-.114.388v.001ZM110.637 38.398a11.32 11.32 0 0 1-1.742.135c-.58 0-1.16-.012-1.741-.034-.18 0-.294-.157-.342-.473a14.765 14.765 0 0 1-.114-.912c-.166-2.25-.332-4.479-.497-6.684a259.086 259.086 0 0 1-.415-6.685c-.042-.81-.076-1.62-.104-2.43-.027-.811-.041-1.61-.041-2.398v-.54c0-.225.007-.456.02-.692a8.51 8.51 0 0 1 .062-.658c.028-.203.069-.349.124-.44.055-.066.146-.145.27-.236a4.187 4.187 0 0 1 .829-.455 5.34 5.34 0 0 1 .311-.118c.442-.18.892-.337 1.348-.473a7.39 7.39 0 0 1 1.368-.27c.111-.022.224-.028.342-.017a.55.55 0 0 1 .322.152c.165.158.369.49.611.996.242.507.48 1.059.715 1.654.235.597.453 1.177.653 1.739l.446 1.25c.373 1.057.743 2.11 1.109 3.156.367 1.047.729 2.1 1.089 3.157a488.89 488.89 0 0 0-.124-8.846 1.537 1.537 0 0 1 0-.371.787.787 0 0 1 .103-.338c.083-.157.201-.236.353-.236.58-.045 1.164-.079 1.752-.101a43.675 43.675 0 0 0 1.752-.102h.227c.084 0 .152.046.208.136.069.113.103.332.103.658s.008.57.021.726c.042 2.881.031 5.74-.031 8.576a187.69 187.69 0 0 1-.384 8.542 6.215 6.215 0 0 0-.031.523c-.007.236-.02.49-.041.76l-.062.776c-.021.248-.052.417-.094.507a.254.254 0 0 1-.114.101.325.325 0 0 1-.135.034c-.11 0-.321-.005-.631-.017l-1.006-.034c-.36-.01-.698-.022-1.016-.033-.318-.011-.525-.017-.622-.017-.069 0-.166-.017-.29-.05-.124-.035-.201-.096-.228-.187a6.73 6.73 0 0 1-.197-.523c-.09-.259-.18-.534-.269-.827l-.259-.827a9.633 9.633 0 0 1-.166-.557 362.796 362.796 0 0 0-1.606-5.03c-.546-1.666-1.11-3.32-1.69-4.964.013.27.031.726.052 1.368.02.641.048 1.38.083 2.212l.114 2.65c.042.934.079 1.823.115 2.667.034.844.062 1.587.083 2.228.02.641.038 1.087.051 1.334.014.248-.055.394-.207.439a3.463 3.463 0 0 1-.435.1l-.002-.001ZM131.884 38.026c-.166.067-.419.13-.757.186-.339.056-.719.107-1.141.152-.421.045-.867.084-1.337.117a73.93 73.93 0 0 1-1.347.085c-.429.023-.812.034-1.151.034-.338 0-.591-.011-.756-.034a2.58 2.58 0 0 1-.726-.186c-.249-.1-.471-.287-.664-.557a3.859 3.859 0 0 1-.446-1.097 26.828 26.828 0 0 1-.28-1.266 51.298 51.298 0 0 1-.715-4.524 68.071 68.071 0 0 1-.362-4.625 235.171 235.171 0 0 1-.135-4.39c-.021-.945-.038-1.834-.052-2.667-.014-.833-.007-1.407.02-1.722a3.65 3.65 0 0 1 .053-.321.48.48 0 0 1 .134-.253c.152-.18.38-.326.684-.439.304-.112.65-.214 1.037-.303.387-.09.791-.163 1.213-.22.422-.056.83-.101 1.223-.136.394-.033.753-.06 1.078-.084.325-.022.584-.045.778-.067.677-.045 1.35-.08 2.021-.101l2.021-.068c.138 0 .242.068.311.203.069.112.104.282.104.506 0 .901.007 1.795.02 2.685a58.7 58.7 0 0 1-.02 2.684c0 .113-.007.22-.021.32a.994.994 0 0 1-.083.288c-.083.18-.194.27-.331.27-.871.18-1.739.293-2.602.338-.864.045-1.731.056-2.602.034 0 .72.021 1.43.062 2.126.567-.022 1.123-.044 1.669-.067a40.703 40.703 0 0 1 1.669-.034c.069 0 .134.012.196.034a.224.224 0 0 1 .135.135c.042.113.062.338.062.675v1.807c0 .236-.003.456-.01.659-.007.202-.011.337-.011.404-.028.181-.062.293-.104.338-.041.067-.093.101-.155.101h-.768c-.283 0-.587.006-.912.017-.325.011-.629.022-.912.034a3.751 3.751 0 0 0-.569.05c.069.405.12.81.155 1.216.035.404.086.81.156 1.215.138-.023.414-.05.829-.085.415-.034.857-.067 1.327-.101.469-.034.911-.073 1.326-.118.415-.045.691-.079.83-.101a.464.464 0 0 1 .176-.034c.062 0 .114.034.156.101.041.09.062.248.062.473v.507c0 .135.007.428.02.877l.042 1.435c.013.507.027.985.041 1.435.014.45.021.743.021.878.013.135.017.276.01.422a.978.978 0 0 1-.093.388c-.069.135-.156.22-.258.253a5.005 5.005 0 0 0-.322.118h.001Z"/></g><path d="M100.35 13.5c2.954 0 5.349-2.239 5.349-5s-2.395-5-5.349-5c-2.955 0-5.35 2.239-5.35 5s2.395 5 5.35 5Z" fill="#141314"/><path d="M100.713 11.589c1.772 0 3.209-1.473 3.209-3.29 0-1.816-1.437-3.288-3.209-3.288s-3.21 1.472-3.21 3.289c0 1.816 1.438 3.289 3.21 3.289Z" fill="#E65B30"/><path d="M100.924 11.589c1.772 0 3.209-1.473 3.209-3.29 0-1.816-1.437-3.288-3.209-3.288-1.773 0-3.21 1.472-3.21 3.289 0 1.816 1.438 3.289 3.21 3.289Z" fill="#fff"/><path d="M101.205 11.589c1.772 0 3.209-1.473 3.209-3.29 0-1.816-1.437-3.288-3.209-3.288S97.996 6.482 97.996 8.3c0 1.816 1.437 3.289 3.209 3.289Z" fill="url(#e)"/><path d="M101.205 11.589c1.772 0 3.209-1.473 3.209-3.29 0-1.816-1.437-3.288-3.209-3.288S97.996 6.482 97.996 8.3c0 1.816 1.437 3.289 3.209 3.289Z" fill="red" style="mix-blend-mode:overlay" opacity=".15"/><path d="M15.301 25.124c-1.595-5-4.412-8.884-7.269-10.5l-.57-1.789-3.506 1.176C.064 15.316-1.165 22.406 1.21 29.848 3.584 37.29 8.664 42.265 12.555 40.96l3.506-1.175-.57-1.789c1.373-3.035 1.406-7.873-.19-12.873Z" fill="url(#f)"/><path d="M14.759 40.141c-3.892 1.305-8.971-3.67-11.346-11.113-2.28-7.143-1.238-13.96 2.29-15.65l-.439.147C1.373 14.829.144 21.92 2.518 29.36c2.375 7.443 7.455 12.418 11.346 11.113L17.37 39.3l-.01-.03-2.601.872Z" fill="#1A1C1F"/><path d="M16.266 39.717c3.891-1.304 5.12-8.395 2.746-15.837S11.558 11.463 7.667 12.767c-3.891 1.304-5.121 8.395-2.746 15.837 2.374 7.442 7.453 12.418 11.345 11.113Z" fill="#FFA300"/><path d="M39.008 16.297c-1.908-4.884-2.18-9.715-1-12.834l-.683-1.747L40.75.311c3.8-1.56 9.184 3.069 12.023 10.338 2.84 7.269 2.06 14.426-1.741 15.986l-3.425 1.405-.681-1.747c-2.953-1.423-6.01-5.112-7.917-9.996Z" fill="url(#g)"/><path d="M51.527 11.113C48.688 3.843 43.305-.785 39.504.775l-.367.151c3.766-1.05 8.85 3.497 11.58 10.489 2.84 7.27 2.06 14.426-1.74 15.986l-2.626 1.077.01.027 3.425-1.405c3.8-1.56 4.58-8.717 1.74-15.987Z" fill="#1A1C1F"/><path d="M47.406 28.12c3.801-1.56 4.58-8.717 1.741-15.986C46.307 4.865 40.925.237 37.124 1.797c-3.8 1.56-4.58 8.717-1.74 15.986 2.839 7.269 8.221 11.897 12.022 10.337Z" fill="#FFA300"/><path d="M44.168 6.773c-2.253-2.866-5.693-3.954-6.273-3.738L8.112 14.125c-.58.216-2.537 3.313-2.47 6.993.204 11.146 5.301 15.128 6.957 16.242 1.29.87 3.418.404 3.999.188L46.055 26.58c.58-.216 2.503-1.26 2.949-2.776.572-1.944 1.988-8.35-4.836-17.032Z" fill="url(#h)"/><g style="mix-blend-mode:overlay" fill="#3B4160"><path d="M13.525 37.016c-1.6-1.136-6.53-5.179-6.903-16.262-.123-3.66 1.697-6.706 2.248-6.911l-.758.282c-.58.216-2.537 3.313-2.47 6.993.205 11.146 5.301 15.128 6.957 16.242 1.29.87 3.418.404 3.999.188l.749-.279c-.55.205-2.576.631-3.822-.254v.001ZM44.167 6.773c-2.252-2.866-5.692-3.954-6.273-3.738l-.757.282c.55-.206 3.853.933 6.05 3.82 6.656 8.744 5.406 15.088 4.89 17.012-.4 1.5-2.22 2.504-2.771 2.71l.749-.28c.58-.216 2.503-1.259 2.949-2.775.571-1.944 1.987-8.35-4.837-17.032Z"/></g><g style="mix-blend-mode:overlay" fill="#3B4160"><path d="M24.28 33.01c-.793-1.435-3.37-6.354-6.136-16.547-.913-3.365-1.044-5.685-.913-5.734l-.438.162c-.131.05 0 2.369.913 5.734 2.766 10.193 5.343 15.112 6.137 16.548.619 1.12 1.18 1.239 1.31 1.19l.438-.163c-.132.049-.692-.07-1.31-1.19ZM37.125 28.228c-.29-1.624-1.394-7.091-5.657-16.727-1.407-3.18-2.759-5.046-2.89-4.997l-.437.163c.13-.05 1.483 1.816 2.89 4.997 4.262 9.636 5.366 15.103 5.656 16.727.226 1.265-.13 1.725-.26 1.774l.438-.163c.13-.05.486-.509.26-1.774Z"/><path d="M24.906 32.779c-.794-1.436-3.371-6.355-6.137-16.548-.913-3.365-1.044-5.685-.913-5.734l-.438.162c-.131.05 0 2.369.913 5.734 2.766 10.193 5.343 15.112 6.137 16.548.62 1.12 1.18 1.239 1.31 1.19l.438-.163c-.13.049-.692-.07-1.31-1.19ZM32.093 11.269c-1.407-3.182-2.759-5.047-2.89-4.998l-.437.163c.13-.05 1.483 1.816 2.89 4.997 4.262 9.636 5.366 15.103 5.656 16.727.226 1.265-.13 1.725-.26 1.774l.437-.163c.131-.049.487-.509.26-1.774-.29-1.623-1.394-7.09-5.657-16.726h.001Z"/></g><path d="M24.597 32.893c-.795-1.436-3.372-6.355-6.137-16.548-.913-3.365-1.044-5.685-.913-5.734l-.438.162c-.13.05 0 2.369.914 5.735 2.765 10.192 5.342 15.111 6.136 16.547.619 1.12 1.18 1.239 1.31 1.19l.439-.163c-.132.049-.692-.07-1.31-1.19h-.001ZM37.003 28.273c-.29-1.624-1.394-7.091-5.656-16.727-1.407-3.181-2.759-5.046-2.89-4.997l.437-.163c.132-.049 1.484 1.816 2.89 4.997 4.262 9.636 5.367 15.103 5.657 16.727.226 1.265-.13 1.725-.26 1.774l-.438.163c.13-.05.486-.51.26-1.774Z" fill="#FFDA00"/><path d="M18.14 31.793a8.09 8.09 0 0 1-1.49.49c-.513.115-1.029.229-1.55.34-.096.01-.174-.03-.237-.122-.035-.044-.057-.122-.066-.236-.016-.11-.058-.345-.127-.704l-.22-1.15-.22-1.148c-.068-.36-.11-.593-.127-.704-.277.187-.545.385-.804.593-.014.035-.045.048-.094.039-.048-.01-.091-.05-.128-.123a2.178 2.178 0 0 1-.093-.203l-.605-1.55a.583.583 0 0 1-.039-.203.252.252 0 0 1 .1-.172c.054-.036.107-.08.159-.131.034-.028.101-.078.204-.15a16.141 16.141 0 0 1 .675-.441c.105-.066.177-.106.216-.122a79.621 79.621 0 0 0-.229-1.31c-.08-.434-.157-.87-.229-1.308-.077.031-.224.11-.44.235-.215.125-.444.258-.684.4-.24.143-.464.283-.672.419a15.97 15.97 0 0 1-.42.27l-.098.04a.12.12 0 0 1-.102-.002.563.563 0 0 1-.162-.207 3.647 3.647 0 0 1-.118-.269 44.346 44.346 0 0 1-.687-1.878c-.211-.622-.42-1.256-.628-1.901-.039-.145-.04-.262-.002-.35a.31.31 0 0 1 .166-.178l.226-.092c.093-.039.262-.111.507-.22l.846-.368 1.008-.435 1.007-.436c.32-.138.602-.258.85-.359a5.35 5.35 0 0 0 .514-.233c.065-.04.14-.035.222.018a.445.445 0 0 1 .181.256c.052.154.128.407.23.76.101.353.214.753.334 1.2a461.37 461.37 0 0 1 .76 2.857c.119.455.223.859.31 1.21.088.35.154.605.198.763a.87.87 0 0 0 .18-.107.986.986 0 0 1 .216-.122.587.587 0 0 1 .223-.047.27.27 0 0 1 .199.094c.035.044.074.112.12.203a5.09 5.09 0 0 1 .251.643c.034.11.061.19.08.24.076.218.136.441.181.671l.023.144c.008.055.003.094-.016.116-.119.107-.248.197-.386.268l-.42.216c.028.12.098.369.21.747.112.378.229.78.35 1.205l.343 1.207c.108.38.18.627.216.745.01.069.02.137.034.205a.3.3 0 0 1-.017.182.324.324 0 0 1-.098.128.594.594 0 0 1-.131.076Z" fill="url(#i)"/><path d="M31.043 26.29c-.483.212-.98.376-1.491.491-.512.115-1.029.228-1.55.34-.096.01-.174-.03-.237-.122-.035-.044-.057-.123-.065-.236-.017-.11-.059-.345-.127-.705a606.713 606.713 0 0 0-.44-2.297c-.069-.358-.111-.593-.127-.704-.278.187-.546.385-.805.594-.014.034-.044.047-.093.038-.049-.01-.092-.05-.129-.123a2.192 2.192 0 0 1-.093-.203l-.605-1.55a.583.583 0 0 1-.039-.203.252.252 0 0 1 .101-.172c.053-.036.106-.08.158-.131.034-.028.102-.078.204-.15a15.878 15.878 0 0 1 .675-.441c.104-.066.176-.106.215-.122a78.574 78.574 0 0 0-.228-1.31c-.08-.433-.157-.87-.229-1.308-.078.032-.224.11-.44.235l-.685.4c-.24.143-.464.283-.671.419-.207.136-.347.226-.42.27l-.098.04a.119.119 0 0 1-.101-.002.56.56 0 0 1-.163-.207 3.538 3.538 0 0 1-.118-.27 44.525 44.525 0 0 1-.686-1.878c-.212-.622-.421-1.255-.629-1.902-.038-.144-.04-.26-.002-.35a.31.31 0 0 1 .167-.177c.073-.03.148-.062.226-.093.093-.038.262-.11.507-.219.245-.108.527-.23.846-.369l1.008-.435 1.007-.435c.32-.138.602-.258.85-.36.247-.1.418-.179.514-.232.065-.041.14-.035.223.018a.448.448 0 0 1 .18.254c.052.155.128.408.23.76.102.354.214.754.335 1.2a460.67 460.67 0 0 1 .76 2.858c.119.455.222.859.31 1.21.089.35.154.605.198.763a.861.861 0 0 0 .18-.107.99.99 0 0 1 .216-.122.584.584 0 0 1 .223-.047c.072 0 .138.03.198.093.036.044.075.113.12.204.045.09.09.193.134.307.044.113.083.225.117.335.034.11.062.191.08.241.077.218.137.44.182.67l.023.145c.008.055.002.094-.016.116-.12.108-.248.197-.386.268a83.75 83.75 0 0 1-.42.216c.028.12.098.37.21.747.112.378.229.78.35 1.205l.343 1.207c.108.38.18.628.216.745.01.07.02.137.033.205a.301.301 0 0 1-.016.182.323.323 0 0 1-.098.128.59.59 0 0 1-.132.076v.002Z" fill="url(#j)"/><path d="M43.632 21.803c-.483.212-.98.376-1.491.49-.512.116-1.029.228-1.55.34-.096.01-.174-.03-.237-.122-.035-.044-.057-.122-.065-.236-.017-.11-.059-.345-.127-.704l-.22-1.149c-.079-.406-.151-.79-.22-1.149-.068-.359-.11-.593-.127-.704-.277.188-.545.385-.804.594-.014.034-.045.047-.093.038-.049-.01-.092-.05-.129-.123a2.1 2.1 0 0 1-.093-.203l-.605-1.55a.583.583 0 0 1-.039-.202.252.252 0 0 1 .101-.173c.053-.036.106-.08.158-.13.034-.03.102-.079.204-.15a15.739 15.739 0 0 1 .675-.442 1.8 1.8 0 0 1 .215-.122 79.424 79.424 0 0 0-.229-1.309c-.08-.434-.156-.87-.228-1.309-.078.032-.224.11-.44.235-.216.125-.444.259-.685.401-.24.143-.464.282-.671.418-.208.137-.347.226-.42.27l-.098.04a.119.119 0 0 1-.102-.001.561.561 0 0 1-.162-.208 3.691 3.691 0 0 1-.118-.269 44.576 44.576 0 0 1-.686-1.878c-.212-.622-.421-1.255-.629-1.902-.039-.144-.04-.261-.002-.35a.311.311 0 0 1 .166-.178 24.181 24.181 0 0 0 .733-.312l.846-.368 1.008-.435 1.007-.435c.32-.138.602-.258.85-.36.247-.1.418-.179.514-.232.065-.041.14-.036.223.018a.446.446 0 0 1 .18.254c.052.155.128.408.23.76.102.354.214.754.334 1.2a461.37 461.37 0 0 1 .76 2.858c.12.455.223.859.311 1.21.087.35.154.605.197.763a.873.873 0 0 0 .18-.107.986.986 0 0 1 .215-.122.587.587 0 0 1 .224-.048.27.27 0 0 1 .198.094c.035.044.075.112.12.204a5.15 5.15 0 0 1 .251.643c.034.11.062.19.08.24.077.217.137.44.182.67.007.042.015.09.022.145.009.055.003.094-.015.115-.12.108-.248.198-.387.268a83.75 83.75 0 0 1-.42.217c.029.12.099.368.21.746.113.378.23.78.35 1.205l.344 1.208c.108.38.18.627.217.744.009.07.02.138.033.206a.302.302 0 0 1-.016.182.323.323 0 0 1-.099.128.565.565 0 0 1-.131.076v.002Z" fill="url(#k)"/><path d="M40.958 39.77c-.354-.093-1.195-.439-1.378-1.629-.054-.35-.09-.662-.108-.95-.192-2.787-.325-5.62-.397-8.42a227.984 227.984 0 0 1-.06-8.41 139.473 139.473 0 0 1 .049-2.874c.015-.597.04-1.174.073-1.715.039-.65.1-1.078.196-1.39a.097.097 0 0 0 .004-.016c.187-.576.478-1.034.865-1.36a1.69 1.69 0 0 1 .085-.067c.258-.186.58-.323 1.015-.431.268-.066.553-.126.852-.178.285-.05.554-.094.803-.129.274-.04.482-.06.657-.067a26.11 26.11 0 0 1 3.443-.121c1.237.039 2.475.255 3.68.643.443.14.888.321 1.324.54.478.24.925.539 1.333.892.01.01.022.019.033.028.44.405.84.894 1.19 1.453.34.544.617 1.135.823 1.756.27.802.443 1.673.514 2.586.07.886.06 1.767-.026 2.616l-.004.027c-.191 1.528-.582 2.92-1.163 4.139a10.776 10.776 0 0 1-1.526 2.392 9.219 9.219 0 0 1-1.989 1.776c-.782.546-1.09.807-1.621 1.325 0 .123-.013 1.803 0 2.07.138 2.936.602 4.14-1.992 5.073-1.727.62-4.91.905-6.675.44Zm6.356-19.262a185.747 185.747 0 0 0 .05 3.514.03.03 0 0 0 .008-.002c.21-.065.425-.216.638-.45.139-.16.263-.352.37-.574.113-.237.196-.491.247-.755.048-.247.059-.497.032-.744a1.539 1.539 0 0 0-.175-.571.503.503 0 0 0-.204-.22 1.75 1.75 0 0 0-.967-.198Z" fill="#141314"/><path d="M32.32 41c-.282 0-.568-.008-.85-.025a7.859 7.859 0 0 1-2.2-.452l-.022-.008a7.567 7.567 0 0 1-1.537-.792 5.168 5.168 0 0 1-1.414-1.427 5.982 5.982 0 0 1-.586-1.16 8.79 8.79 0 0 1-.367-1.22l-.002-.011a12.32 12.32 0 0 1-.257-2.088 22.953 22.953 0 0 1 .012-2.002c.002-.176.021-.36.058-.546.077-.393.276-.737.576-.997.188-.167.425-.302.725-.414.192-.072.395-.131.607-.18a9.527 9.527 0 0 1 .577-.118c.088-.029.178-.05.271-.063l1.291-.188a10.403 10.403 0 0 1-1.213-.492 6.642 6.642 0 0 1-1.994-1.429 6.958 6.958 0 0 1-1.441-2.21 7.472 7.472 0 0 1-.527-2.366 11.08 11.08 0 0 1 .083-2.34l.002-.017c.088-.54.204-1.071.346-1.575a8.081 8.081 0 0 1 .603-1.541l.018-.034c.266-.477.568-.918.897-1.31a9.74 9.74 0 0 1 1.02-1.047 11.125 11.125 0 0 1 2.15-1.509 12.564 12.564 0 0 1 2.282-.947 9.955 9.955 0 0 1 1.937-.44 6.883 6.883 0 0 1 2.207.09c.008 0 .015.002.022.003a8.086 8.086 0 0 1 1.937.7 6.201 6.201 0 0 1 1.805 1.397l.014.015c.346.4.652.861.91 1.372.235.466.443.952.62 1.449.005.01.008.022.012.033.263.81.463 1.67.595 2.56.13.889.18 1.795.146 2.696-.004.511-.11.93-.327 1.282-.015.026-.032.05-.05.075-.23.321-.569.568-.982.717-.161.06-.464.16-1.195.341-.526.131-1.093.257-1.685.375l-.377.075.16.044a8.15 8.15 0 0 1 1.67.63c.594.302 1.14.708 1.623 1.206l.032.035a5.318 5.318 0 0 1 1.142 2.066c.215.724.335 1.491.353 2.283.019.779-.055 1.573-.219 2.358a9.368 9.368 0 0 1-.73 2.188l-.01.018a8.673 8.673 0 0 1-1.162 1.74c-.447.516-.926.969-1.428 1.345a8.406 8.406 0 0 1-2.472 1.292c-.82.263-1.657.436-2.487.515l-.03.003c-.377.029-.76.044-1.136.044l-.002.001Zm1.645-10.156.001.067c0 .102.006.2.016.288l.006.057c.011.164.028.334.05.507l.025-.004a.403.403 0 0 0 .142-.043.196.196 0 0 0 .063-.054.5.5 0 0 0 .005-.342 1.03 1.03 0 0 0-.139-.273 1.82 1.82 0 0 0-.17-.203h.002Zm-1.613-7.015.077.06a11.23 11.23 0 0 1-.023-.35c-.008-.166-.015-.322-.024-.469a2.27 2.27 0 0 0-.011-.14v-.002a1.734 1.734 0 0 0-.189-.5c-.094.231-.118.493-.071.798.042.282.128.494.241.602v.001ZM58.369 39.157c-.585 0-1.197-.13-1.775-.208a8.09 8.09 0 0 1-1.739-.439l-.032-.012a4.477 4.477 0 0 1-.687-.372c-.433-.273-.743-.615-.918-1.015l-.011-.026a2.404 2.404 0 0 1-.157-.704 6.31 6.31 0 0 1-.027-.596c0-.197.005-.372.012-.538.006-.124.009-.222.009-.289v-.027c.069-3.318.224-6.658.459-9.927.236-3.28.63-6.574 1.172-9.79.058-.442.191-.8.406-1.094l.04-.052c.17-.206.554-.553 1.239-.553.78 0 1.589.085 2.358.203.901.138 3 .254 3.782.782.635.431.63 1.255.5 2l-.99 1.736a175.656 175.656 0 0 0-1.315 9.294c-.363 3.168 2.33 6.574 1.928 9.73-.082.646-.05 1.294-.623 1.74-.264.218-3.289.157-3.633.157h.002Z" fill="#141314"/><path d="M66.689 39.498c-.74 0-1.504-.011-2.266-.034-.757-.015-1.695-.424-1.909-1.541a13.72 13.72 0 0 1-.159-1.03c-.21-2.283-.424-4.577-.635-6.817-.213-2.254-.391-4.559-.533-6.852-.053-.833-.098-1.674-.133-2.5A57.646 57.646 0 0 1 61 18.237v-.55c0-.256.01-.52.03-.782.02-.272.05-.532.092-.77.066-.392.187-.692.379-.941.037-.048.077-.094.122-.136.158-.155.36-.301.634-.46.213-.124.441-.238.682-.343a8 8 0 0 1 .695-.264c.188-.06.33-.104.443-.135 1.37-.443 2.835-.855 4.281-.855 3.642 0 4.181 3.12 5.115 6-.339-.368-.325-.854-.339-1.334-.06-.5.04-1.03.339-1.439.363-.521.99-.84 1.697-.86.745-.047 1.503-.081 2.256-.104.727-.022 1.46-.056 2.18-.1.039-.002.077-.004.116-.004h.291c.636 0 1.205.263 1.559.72.257.337.37.749.37 1.343a6.473 6.473 0 0 0 .026.722c.053 2.94.04 5.9-.04 8.794a154.437 154.437 0 0 1-.5 8.843 4.06 4.06 0 0 0-.028.413c-.01.265-.03.546-.057.836-.027.279-.053.546-.08.8-.044.425-.123.707-.262.947-.026.045-.055.089-.088.132-.593.769-1.592.732-2.477.704-3.92-.11-7.83.087-11.74.087l-.007-.002Z" fill="#141314"/><path d="M33.72 39.483a9.45 9.45 0 0 1-1.492.016 4.61 4.61 0 0 1-1.471-.354 4.858 4.858 0 0 1-1.037-.625 3.554 3.554 0 0 1-.871-1.029 5.022 5.022 0 0 1-.394-.911c-.11-.338-.2-.687-.27-1.047a12.701 12.701 0 0 1-.196-1.874c-.02-.641-.018-1.277.01-1.908 0-.112.011-.23.032-.354a.503.503 0 0 1 .135-.287.673.673 0 0 1 .217-.135c.104-.045.218-.085.343-.118a5.86 5.86 0 0 1 .352-.085c.11-.022.193-.044.25-.067l1.191-.202c.394-.067.791-.124 1.192-.169.042 0 .107-.005.197-.016.09-.011.19-.023.3-.034.11-.011.21-.017.3-.017h.197l.124.067a.275.275 0 0 1 .104.102c.042.112.062.242.062.388 0 .146.007.287.02.422.014.226.035.456.063.692.027.236.09.444.186.624.07.158.17.27.301.338a.839.839 0 0 0 .384.101c.179 0 .376-.017.59-.05.215-.035.412-.107.592-.22.179-.112.331-.265.456-.456.124-.191.2-.444.228-.76a1.935 1.935 0 0 0-.073-.659 2.416 2.416 0 0 0-.259-.59 3.003 3.003 0 0 0-.373-.49 1.648 1.648 0 0 0-.394-.32 7.884 7.884 0 0 0-1.223-.558 17.87 17.87 0 0 0-1.244-.388c-.415-.112-.83-.237-1.244-.372a6.808 6.808 0 0 1-1.223-.54c-.47-.247-.912-.619-1.327-1.114-.414-.494-.746-1.091-.995-1.789a7.111 7.111 0 0 1-.373-1.975c-.041-.73-.02-1.423.062-2.076.07-.495.159-.973.27-1.435.11-.461.255-.895.435-1.3.193-.405.407-.77.642-1.097.235-.326.484-.625.746-.895a8.289 8.289 0 0 1 1.587-1.3 8.588 8.588 0 0 1 1.71-.827c.456-.18.919-.304 1.389-.371.47-.068.939-.045 1.41.067.441.112.88.298 1.316.557.435.259.826.614 1.171 1.064.235.315.443.68.622 1.097.18.417.34.85.477 1.3a16.327 16.327 0 0 1 .58 4.828c0 .293-.04.518-.123.675a.502.502 0 0 1-.25.202 8.041 8.041 0 0 1-.87.287c-.43.124-.885.243-1.369.355l-1.368.32c-.429.102-.718.176-.87.22a.432.432 0 0 1-.208.017c-.07-.01-.118-.061-.145-.152-.028-.045-.05-.146-.063-.303a10.258 10.258 0 0 1-.03-.49l-.021-.473a2.422 2.422 0 0 0-.031-.32 3.226 3.226 0 0 0-.187-.642 4.02 4.02 0 0 0-.29-.574c-.153-.247-.322-.422-.508-.523-.187-.101-.373-.135-.56-.101a1.09 1.09 0 0 0-.54.287c-.172.157-.32.383-.445.675-.207.473-.273 1.002-.197 1.587.077.585.266 1.035.57 1.35.139.135.28.253.426.354.145.101.293.186.445.253a7.226 7.226 0 0 0 1.876.659c.63.123 1.254.287 1.876.49.387.112.77.281 1.15.506.38.226.73.53 1.047.912.332.428.577.95.736 1.57.16.62.246 1.271.26 1.958.013.687-.042 1.38-.166 2.076a8.976 8.976 0 0 1-.54 1.89 7.504 7.504 0 0 1-.839 1.47 7.202 7.202 0 0 1-1.026 1.13 5.548 5.548 0 0 1-1.71 1.047c-.6.225-1.206.372-1.814.44v-.001ZM45.082 38.537c-.36.023-.719.028-1.078.017a7.092 7.092 0 0 1-1.079-.118c-.152-.046-.249-.22-.29-.523a10.54 10.54 0 0 1-.084-.827c-.165-2.724-.28-5.453-.342-8.188-.062-2.735-.08-5.464-.052-8.188a148.36 148.36 0 0 1 .042-2.785c.013-.574.034-1.119.062-1.637.027-.518.069-.878.124-1.08.096-.338.228-.585.394-.743.083-.067.224-.13.425-.185.2-.056.414-.107.642-.152.228-.045.446-.085.653-.118a3.15 3.15 0 0 1 .457-.05 18.662 18.662 0 0 1 2.85-.119c.947.034 1.883.22 2.81.558.317.113.635.259.953.439.318.18.615.404.891.675.304.315.58.697.83 1.148.249.45.449.934.6 1.451.208.698.34 1.447.394 2.246.055.8.048 1.581-.02 2.346-.153 1.374-.457 2.6-.912 3.68a9.453 9.453 0 0 1-1.161 2.06 7.043 7.043 0 0 1-1.472 1.486 5.667 5.667 0 0 1-1.794.978c-.629.203-1.253.35-1.875.44.013.201.034.596.062 1.181a423.623 423.623 0 0 1 .155 3.748c.02.585.031.978.031 1.181.028.248.014.45-.041.608a.41.41 0 0 1-.207.203c-.07.045-.197.079-.384.101-.187.023-.384.045-.591.067-.208.023-.408.045-.601.068a4.248 4.248 0 0 1-.394.033h.002Zm1.72-18.603a212.052 212.052 0 0 0 .083 5.908 15.29 15.29 0 0 0 1.576-.303c.442-.136.843-.428 1.202-.878a3.78 3.78 0 0 0 .497-.86c.139-.327.239-.67.3-1.03.063-.36.077-.72.042-1.081a2.957 2.957 0 0 0-.28-1.013 1.759 1.759 0 0 0-.673-.76 2.664 2.664 0 0 0-.912-.337 2.6 2.6 0 0 0-.975.016c-.325.068-.611.181-.86.338ZM69.48 38.064a11.3 11.3 0 0 1-1.74.136c-.581 0-1.162-.012-1.742-.035-.18 0-.294-.156-.342-.472a15.497 15.497 0 0 1-.114-.912c-.166-2.25-.332-4.479-.498-6.684a258.618 258.618 0 0 1-.414-6.685c-.042-.81-.076-1.62-.104-2.431-.027-.81-.042-1.61-.042-2.397v-.54c0-.225.007-.457.02-.692.014-.237.035-.456.063-.659.027-.202.069-.348.124-.439.055-.067.145-.146.27-.236a4.232 4.232 0 0 1 .83-.455c.137-.056.24-.096.31-.118.442-.18.891-.338 1.348-.473a7.392 7.392 0 0 1 1.368-.27c.11-.023.224-.029.342-.017a.549.549 0 0 1 .322.152c.165.157.369.49.61.996.243.507.481 1.058.716 1.654a56.5 56.5 0 0 1 .653 1.739l.446 1.249 1.11 3.157c.365 1.046.728 2.099 1.087 3.156a486.166 486.166 0 0 0-.124-8.845 1.634 1.634 0 0 1 0-.372.782.782 0 0 1 .104-.337c.083-.157.2-.236.353-.236.58-.045 1.164-.08 1.751-.102a43.924 43.924 0 0 0 1.752-.1h.228c.083 0 .152.045.207.134.07.113.104.333.104.659s.007.569.02.726c.042 2.881.032 5.74-.03 8.575-.062 2.836-.19 5.684-.384 8.542a6.205 6.205 0 0 0-.031.524c-.007.236-.02.489-.042.76-.02.27-.041.529-.062.776-.02.248-.051.417-.093.507a.257.257 0 0 1-.114.1.324.324 0 0 1-.135.035 20.1 20.1 0 0 1-.632-.017l-1.005-.034c-.36-.01-.699-.022-1.016-.034-.318-.01-.525-.017-.622-.017-.07 0-.166-.016-.29-.05-.125-.034-.2-.096-.228-.186a6.738 6.738 0 0 1-.197-.523 22.7 22.7 0 0 1-.27-.827c-.09-.292-.176-.569-.258-.827a9.125 9.125 0 0 1-.166-.558 357.08 357.08 0 0 0-1.607-5.03c-.546-1.666-1.11-3.32-1.69-4.963.014.27.031.726.053 1.368.02.64.048 1.379.083 2.211.034.833.073 1.717.114 2.65.042.934.08 1.823.114 2.668.035.844.062 1.586.084 2.228.02.64.038 1.086.051 1.334.013.247-.056.393-.207.438a3.474 3.474 0 0 1-.435.101l-.002-.002ZM58.846 37.66a6.789 6.789 0 0 1-1.472-.372 3.502 3.502 0 0 1-.487-.27c-.215-.136-.356-.282-.426-.44a1.2 1.2 0 0 1-.062-.32 4.942 4.942 0 0 1-.02-.473c0-.17.003-.326.01-.473a7.77 7.77 0 0 0 .011-.354c.07-3.309.22-6.595.456-9.859.235-3.263.622-6.493 1.161-9.69.028-.225.083-.393.166-.506.055-.068.166-.096.331-.085.166.012.283.017.353.017.58.022 1.165.078 1.752.169C56.984 23.5 61 37.95 58.846 37.659Z" fill="#298A31"/><path d="M34.565 39.483c-.498.045-.995.05-1.493.016a4.61 4.61 0 0 1-1.472-.354 4.859 4.859 0 0 1-1.036-.625 3.557 3.557 0 0 1-.871-1.029 5.026 5.026 0 0 1-.394-.911c-.11-.338-.2-.686-.27-1.047a12.716 12.716 0 0 1-.196-1.874 24.94 24.94 0 0 1 .01-1.908c0-.112.011-.23.032-.354a.503.503 0 0 1 .134-.287.672.672 0 0 1 .218-.135c.104-.045.218-.085.342-.118.124-.034.242-.061.353-.084a1.5 1.5 0 0 0 .249-.068l1.192-.202c.393-.067.791-.124 1.192-.169.041 0 .107-.005.196-.016.09-.011.19-.023.3-.034a3.1 3.1 0 0 1 .301-.017h.197c.042.023.083.046.124.067a.274.274 0 0 1 .104.102c.041.112.062.242.062.388 0 .146.007.287.02.422.014.226.035.456.062.692.028.236.09.444.187.624.07.158.17.27.3.338a.839.839 0 0 0 .384.101c.18 0 .377-.017.591-.05.215-.034.412-.107.591-.22.18-.112.332-.265.457-.456.124-.191.2-.444.227-.76a1.936 1.936 0 0 0-.072-.659 2.42 2.42 0 0 0-.259-.59 3.019 3.019 0 0 0-.373-.49 1.653 1.653 0 0 0-.394-.32 7.87 7.87 0 0 0-1.223-.558 17.87 17.87 0 0 0-1.244-.388c-.415-.112-.83-.237-1.244-.372a6.81 6.81 0 0 1-1.223-.54c-.47-.247-.912-.619-1.327-1.114-.415-.494-.746-1.091-.995-1.789a7.105 7.105 0 0 1-.373-1.975c-.042-.73-.02-1.423.062-2.076.07-.495.159-.973.27-1.435a7.52 7.52 0 0 1 .434-1.3c.194-.405.408-.77.643-1.097.235-.326.484-.625.746-.895a8.292 8.292 0 0 1 1.586-1.3 8.594 8.594 0 0 1 1.71-.827c.457-.18.92-.303 1.39-.371a3.74 3.74 0 0 1 1.41.067 5 5 0 0 1 1.316.557c.435.259.826.614 1.171 1.064.235.315.442.68.622 1.097.18.417.339.85.477 1.3a16.313 16.313 0 0 1 .58 4.828c0 .293-.041.518-.124.675a.502.502 0 0 1-.249.202 8.072 8.072 0 0 1-.87.288c-.43.123-.885.242-1.369.354l-1.368.32c-.429.102-.719.176-.871.22a.432.432 0 0 1-.207.017c-.07-.01-.118-.061-.146-.152-.027-.045-.048-.146-.062-.303-.014-.157-.024-.321-.03-.49l-.021-.473a2.432 2.432 0 0 0-.031-.32 3.226 3.226 0 0 0-.187-.642 4.035 4.035 0 0 0-.29-.574c-.153-.247-.322-.422-.509-.523a.836.836 0 0 0-.56-.101 1.09 1.09 0 0 0-.538.287c-.173.157-.322.383-.446.675-.207.473-.273 1.002-.197 1.587.076.585.266 1.035.57 1.35.138.135.28.253.425.354.146.102.294.186.446.253a7.226 7.226 0 0 0 1.876.659c.63.123 1.254.287 1.876.49.386.112.77.281 1.15.506.38.226.729.53 1.047.912.331.428.577.95.736 1.57.159.62.246 1.271.26 1.958a10.63 10.63 0 0 1-.167 2.076 8.97 8.97 0 0 1-.538 1.89 7.494 7.494 0 0 1-.84 1.47 7.208 7.208 0 0 1-1.026 1.13 5.55 5.55 0 0 1-1.71 1.048c-.601.224-1.206.371-1.814.438ZM45.926 38.537c-.36.023-.72.028-1.079.017a7.095 7.095 0 0 1-1.078-.118c-.152-.046-.25-.22-.29-.523-.042-.304-.07-.58-.084-.827a215.07 215.07 0 0 1-.342-8.188c-.062-2.735-.08-5.464-.052-8.188a146.029 146.029 0 0 1 .042-2.785c.013-.574.034-1.119.062-1.637.027-.518.069-.878.124-1.08.096-.338.227-.585.393-.743.083-.067.224-.13.425-.185.2-.056.415-.107.643-.152.228-.045.446-.085.653-.118.207-.034.359-.05.456-.05a18.66 18.66 0 0 1 2.851-.119c.947.034 1.883.22 2.81.558.317.113.634.259.953.439.318.18.615.404.891.675.304.315.58.697.83 1.148.248.45.449.934.6 1.451.208.698.339 1.447.394 2.246.055.8.048 1.581-.02 2.346-.153 1.374-.457 2.6-.912 3.68a9.452 9.452 0 0 1-1.161 2.06 7.043 7.043 0 0 1-1.472 1.486 5.668 5.668 0 0 1-1.794.978c-.629.203-1.254.35-1.876.44.014.202.035.596.062 1.181a423.743 423.743 0 0 1 .156 3.748c.02.585.031.978.031 1.182.028.247.014.45-.041.607a.41.41 0 0 1-.208.203c-.069.045-.197.079-.383.101-.187.023-.384.045-.591.067a78.3 78.3 0 0 0-.601.068 4.256 4.256 0 0 1-.394.034l.002-.002Zm1.72-18.603a212.05 212.05 0 0 0 .083 5.908 15.256 15.256 0 0 0 1.575-.303c.443-.136.843-.428 1.203-.878.193-.247.359-.534.497-.86.138-.327.239-.67.3-1.03.063-.36.077-.72.042-1.081a2.959 2.959 0 0 0-.28-1.013 1.76 1.76 0 0 0-.673-.76 2.666 2.666 0 0 0-.912-.337 2.6 2.6 0 0 0-.975.017c-.325.067-.611.18-.86.337ZM61.344 37.948c-.344.052-1.463-.09-1.81-.135a7.14 7.14 0 0 1-1.512-.37 3.625 3.625 0 0 1-.5-.27c-.22-.136-.366-.282-.437-.439a1.169 1.169 0 0 1-.064-.32A4.796 4.796 0 0 1 57 35.94c0-.169.004-.325.01-.472a7.51 7.51 0 0 0 .012-.354c.07-3.304.227-6.586.468-9.845a99.68 99.68 0 0 1 1.193-9.677c.028-.225.085-.393.17-.506.056-.067.17-.096.34-.085.17.012.291.017.363.017a16.28 16.28 0 0 1 1.8.169c.602.09 1.202.191 1.798.303.1.022.203.046.31.067a.84.84 0 0 1 .287.118.584.584 0 0 1 .202.236c.05.101.06.23.032.388-.058.314-.114.63-.17.944-.058.315-.114.63-.17.944-.54 3.102-.995 6.221-1.363 9.357-.37 3.135-.632 6.31-.788 9.525-.028.213.368.61.157.743l-.307.135ZM70.324 38.064c-.58.09-1.16.136-1.741.136-.58 0-1.16-.012-1.741-.034-.18 0-.294-.157-.342-.473a15.415 15.415 0 0 1-.115-.912c-.165-2.25-.331-4.479-.497-6.684a259.093 259.093 0 0 1-.415-6.685c-.041-.81-.076-1.62-.103-2.431-.028-.81-.042-1.61-.042-2.397v-.54c0-.225.007-.457.02-.692.014-.236.035-.456.063-.659.027-.202.069-.348.124-.439.055-.067.145-.146.27-.236a4.222 4.222 0 0 1 .83-.455c.137-.056.24-.096.31-.118.442-.18.891-.338 1.347-.473a7.385 7.385 0 0 1 1.369-.27c.11-.023.224-.028.342-.017a.547.547 0 0 1 .321.152c.166.158.37.49.612.996a25.9 25.9 0 0 1 .715 1.654c.235.596.453 1.176.653 1.739l.446 1.249c.373 1.058.742 2.11 1.109 3.157.366 1.046.729 2.099 1.088 3.157a486.161 486.161 0 0 0-.124-8.846 1.634 1.634 0 0 1 0-.371.781.781 0 0 1 .104-.338c.083-.157.2-.236.352-.236a45.08 45.08 0 0 1 1.752-.102 43.558 43.558 0 0 0 1.752-.1h.228c.083 0 .152.045.207.134.07.113.104.333.104.659s.007.569.02.726c.042 2.881.031 5.74-.03 8.575a187.4 187.4 0 0 1-.384 8.542 6.172 6.172 0 0 0-.031.524c-.007.236-.02.49-.042.76-.021.27-.041.529-.062.776-.02.248-.052.417-.093.507a.258.258 0 0 1-.114.1.324.324 0 0 1-.135.035c-.11 0-.322-.005-.632-.017a398.478 398.478 0 0 0-2.021-.068c-.318-.01-.526-.017-.622-.017-.07 0-.166-.016-.29-.05-.125-.034-.201-.096-.229-.186a6.767 6.767 0 0 1-.196-.523c-.09-.259-.18-.534-.27-.827-.09-.292-.176-.568-.259-.827a9.029 9.029 0 0 1-.165-.558 356.179 356.179 0 0 0-1.607-5.03 229.55 229.55 0 0 0-1.69-4.963c.014.27.031.726.052 1.368.02.641.048 1.38.084 2.211.034.833.072 1.717.114 2.65.041.934.079 1.823.114 2.668.035.844.062 1.587.083 2.228.02.641.038 1.086.052 1.334.013.248-.056.393-.207.438a3.458 3.458 0 0 1-.436.101l-.002-.002Z" fill="#FFF800"/><path d="M35.201 39.483c-.497.045-.995.05-1.492.016a4.61 4.61 0 0 1-1.472-.354 4.856 4.856 0 0 1-1.037-.625 3.553 3.553 0 0 1-.87-1.029 5.02 5.02 0 0 1-.394-.911c-.11-.338-.2-.686-.27-1.047a12.716 12.716 0 0 1-.196-1.874 24.94 24.94 0 0 1 .01-1.908c0-.112.01-.23.031-.354a.502.502 0 0 1 .135-.287.67.67 0 0 1 .218-.135c.104-.045.218-.085.342-.118.124-.034.242-.061.353-.084a1.5 1.5 0 0 0 .248-.068L32 30.503a20.86 20.86 0 0 1 1.192-.169c.042 0 .107-.005.197-.016.09-.011.19-.023.3-.034a3.1 3.1 0 0 1 .301-.017h.197c.041.023.083.046.124.067a.275.275 0 0 1 .103.102c.042.112.063.242.063.388 0 .146.007.287.02.422.014.226.035.456.062.692.028.236.09.444.187.624.07.158.17.27.3.338a.838.838 0 0 0 .384.101c.18 0 .377-.017.591-.05.214-.034.411-.107.591-.22.18-.112.332-.265.456-.456.125-.191.2-.444.228-.76a1.936 1.936 0 0 0-.072-.659 2.42 2.42 0 0 0-.26-.59 3.019 3.019 0 0 0-.372-.49 1.651 1.651 0 0 0-.395-.32 7.866 7.866 0 0 0-1.222-.558 17.87 17.87 0 0 0-1.245-.388c-.414-.112-.829-.237-1.244-.372a6.812 6.812 0 0 1-1.223-.54c-.47-.247-.912-.619-1.326-1.114-.415-.494-.746-1.091-.995-1.789a7.109 7.109 0 0 1-.373-1.975c-.042-.73-.02-1.423.062-2.076.069-.495.158-.973.27-1.435a7.52 7.52 0 0 1 .434-1.3c.194-.405.408-.77.643-1.097.235-.326.483-.625.746-.895a8.295 8.295 0 0 1 1.586-1.3 8.597 8.597 0 0 1 1.71-.827c.457-.18.92-.303 1.389-.371a3.74 3.74 0 0 1 1.41.067c.442.113.88.298 1.317.557.435.259.825.614 1.171 1.064.235.315.442.68.622 1.097.18.417.339.85.477 1.3a16.313 16.313 0 0 1 .58 4.828c0 .293-.041.518-.124.675a.503.503 0 0 1-.249.202 8.064 8.064 0 0 1-.87.288c-.43.123-.885.242-1.37.354l-1.367.32c-.43.102-.719.176-.871.22a.432.432 0 0 1-.208.017c-.069-.01-.117-.061-.145-.152-.027-.045-.049-.146-.062-.303-.014-.157-.024-.321-.031-.49l-.02-.473a2.436 2.436 0 0 0-.032-.32 3.226 3.226 0 0 0-.186-.642 4.024 4.024 0 0 0-.291-.574c-.152-.247-.322-.422-.508-.523-.187-.101-.373-.135-.56-.101a1.09 1.09 0 0 0-.539.287c-.172.157-.321.383-.445.675-.208.473-.273 1.002-.197 1.587.076.585.266 1.035.57 1.35.138.135.28.253.425.354.145.102.293.186.446.253a7.226 7.226 0 0 0 1.876.659c.629.123 1.254.287 1.876.49.386.112.77.281 1.15.506.38.226.729.53 1.047.912.331.428.577.95.736 1.57a8.54 8.54 0 0 1 .259 1.958c.013.687-.042 1.38-.166 2.076a8.976 8.976 0 0 1-.539 1.89 7.494 7.494 0 0 1-.839 1.47 7.208 7.208 0 0 1-1.026 1.13 5.551 5.551 0 0 1-1.71 1.048c-.601.224-1.206.371-1.814.438Z" fill="url(#l)"/><path d="M46.562 38.537c-.36.023-.718.028-1.078.017a7.095 7.095 0 0 1-1.078-.118c-.153-.046-.25-.22-.29-.523a10.5 10.5 0 0 1-.084-.827 215.07 215.07 0 0 1-.342-8.188c-.062-2.735-.08-5.464-.052-8.188a146.029 146.029 0 0 1 .042-2.785c.013-.574.034-1.119.061-1.637.028-.518.07-.878.124-1.08.097-.338.228-.585.394-.743.083-.067.224-.13.425-.185.2-.056.415-.107.643-.152.227-.045.445-.085.653-.118.207-.034.359-.05.456-.05a18.66 18.66 0 0 1 2.85-.119c.947.034 1.884.22 2.81.558.318.113.635.259.953.439.318.18.615.404.892.675.304.315.58.697.83 1.148.248.45.448.934.6 1.451.207.698.339 1.447.394 2.246.055.8.047 1.581-.02 2.346-.153 1.374-.457 2.6-.913 3.68a9.448 9.448 0 0 1-1.16 2.06A7.041 7.041 0 0 1 52.2 29.93a5.667 5.667 0 0 1-1.794.978c-.63.203-1.254.35-1.876.44.013.202.035.596.062 1.181a424.378 424.378 0 0 1 .156 3.748c.02.585.031.978.031 1.182.027.247.013.45-.042.607a.41.41 0 0 1-.207.203c-.07.045-.197.079-.384.101-.187.023-.383.045-.59.067a78.3 78.3 0 0 0-.602.068 4.256 4.256 0 0 1-.393.034l.001-.002Zm1.721-18.603a212.063 212.063 0 0 0 .083 5.908 15.256 15.256 0 0 0 1.575-.303c.442-.136.843-.428 1.203-.878.193-.247.359-.534.497-.86.138-.327.238-.67.3-1.03s.076-.72.042-1.081a2.959 2.959 0 0 0-.28-1.013 1.76 1.76 0 0 0-.674-.76 2.666 2.666 0 0 0-.912-.337 2.6 2.6 0 0 0-.974.017c-.325.067-.612.18-.86.337Z" fill="url(#m)"/><path d="M61.694 37.794c-.194.206-1.425-.089-1.762-.134a6.782 6.782 0 0 1-1.472-.372 3.492 3.492 0 0 1-.487-.27c-.215-.136-.356-.282-.426-.44a1.2 1.2 0 0 1-.062-.32 4.943 4.943 0 0 1-.02-.473c0-.17.003-.326.01-.473.008-.146.011-.264.011-.354.07-3.309.22-6.595.456-9.859.235-3.263.622-6.493 1.161-9.69.028-.224.083-.393.166-.506.055-.068.166-.096.331-.085.166.012.283.017.353.017.58.022 1.164.079 1.752.169.587.09 1.171.191 1.752.303.096.023.197.046.3.068a.805.805 0 0 1 .28.117.581.581 0 0 1 .197.237.645.645 0 0 1 .031.388l-.166.946-.166.945c-.525 3.107-.967 6.23-1.326 9.369-.36 3.14-.615 6.32-.767 9.538a5.831 5.831 0 0 0-.031.49c-.008.213-.046.343-.115.387v.002Z" fill="url(#n)"/><path d="M70.96 38.064c-.58.09-1.16.136-1.74.136-.58 0-1.161-.012-1.742-.034-.18 0-.294-.157-.342-.473a15.415 15.415 0 0 1-.114-.912c-.166-2.25-.331-4.479-.497-6.684a259.541 259.541 0 0 1-.415-6.685c-.041-.81-.076-1.62-.103-2.431-.028-.81-.042-1.61-.042-2.397v-.54c0-.225.007-.457.02-.692a8.46 8.46 0 0 1 .062-.659c.028-.202.07-.348.124-.439.055-.067.146-.146.27-.236a4.222 4.222 0 0 1 .83-.455c.138-.056.241-.096.31-.118.442-.18.892-.338 1.348-.473a7.384 7.384 0 0 1 1.368-.27c.111-.023.225-.028.342-.017a.547.547 0 0 1 .322.152c.166.158.37.49.611.996a25.9 25.9 0 0 1 .715 1.654c.235.596.453 1.176.654 1.739l.445 1.249c.373 1.058.743 2.11 1.11 3.157.366 1.046.728 2.099 1.088 3.157a486.161 486.161 0 0 0-.124-8.846 1.634 1.634 0 0 1 0-.371.783.783 0 0 1 .104-.338c.083-.157.2-.236.352-.236a45.08 45.08 0 0 1 1.752-.102 43.563 43.563 0 0 0 1.752-.1h.228c.083 0 .151.045.207.134.07.113.104.333.104.659s.007.569.02.726c.042 2.881.031 5.74-.03 8.575a187.4 187.4 0 0 1-.385 8.542 6.215 6.215 0 0 0-.03.524c-.008.236-.021.49-.042.76l-.062.776c-.02.248-.052.417-.093.507a.258.258 0 0 1-.115.1.324.324 0 0 1-.134.035c-.111 0-.322-.005-.632-.017a401.69 401.69 0 0 0-2.022-.068c-.318-.01-.525-.017-.622-.017-.069 0-.165-.016-.29-.05-.124-.034-.2-.096-.228-.186a6.755 6.755 0 0 1-.197-.523c-.09-.259-.18-.534-.27-.827-.09-.292-.175-.568-.258-.827a8.977 8.977 0 0 1-.166-.558 356.179 356.179 0 0 0-1.606-5.03c-.546-1.666-1.11-3.32-1.69-4.963.013.27.03.726.052 1.368.02.641.048 1.38.083 2.211.035.833.073 1.717.115 2.65.041.934.079 1.823.114 2.668.034.844.062 1.587.083 2.228.02.641.038 1.086.052 1.334.013.248-.056.393-.208.438a3.454 3.454 0 0 1-.435.101l-.002-.002Z" fill="url(#o)"/><g style="mix-blend-mode:screen" opacity=".45" fill="#4FA839"><path d="M35.201 39.483c-.497.045-.995.05-1.492.016a4.61 4.61 0 0 1-1.472-.354 4.856 4.856 0 0 1-1.037-.625 3.553 3.553 0 0 1-.87-1.029 5.02 5.02 0 0 1-.394-.911c-.11-.338-.2-.686-.27-1.047a12.716 12.716 0 0 1-.196-1.874 24.94 24.94 0 0 1 .01-1.908c0-.112.01-.23.031-.354a.502.502 0 0 1 .135-.287.67.67 0 0 1 .218-.135c.104-.045.218-.085.342-.118.124-.034.242-.061.353-.084a1.5 1.5 0 0 0 .248-.068L32 30.503a20.86 20.86 0 0 1 1.192-.169c.042 0 .107-.005.197-.016.09-.011.19-.023.3-.034a3.1 3.1 0 0 1 .301-.017h.197c.041.023.083.046.124.067a.275.275 0 0 1 .103.102c.042.112.063.242.063.388 0 .146.007.287.02.422.014.226.035.456.062.692.028.236.09.444.187.624.07.158.17.27.3.338a.838.838 0 0 0 .384.101c.18 0 .377-.017.591-.05.214-.034.411-.107.591-.22.18-.112.332-.265.456-.456.125-.191.2-.444.228-.76a1.936 1.936 0 0 0-.072-.659 2.42 2.42 0 0 0-.26-.59 3.019 3.019 0 0 0-.372-.49 1.651 1.651 0 0 0-.395-.32 7.866 7.866 0 0 0-1.222-.558 17.87 17.87 0 0 0-1.245-.388c-.414-.112-.829-.237-1.244-.372a6.812 6.812 0 0 1-1.223-.54c-.47-.247-.912-.619-1.326-1.114-.415-.494-.746-1.091-.995-1.789a7.109 7.109 0 0 1-.373-1.975c-.042-.73-.02-1.423.062-2.076.069-.495.158-.973.27-1.435a7.52 7.52 0 0 1 .434-1.3c.194-.405.408-.77.643-1.097.235-.326.483-.625.746-.895a8.295 8.295 0 0 1 1.586-1.3 8.597 8.597 0 0 1 1.71-.827c.457-.18.92-.303 1.389-.371a3.74 3.74 0 0 1 1.41.067c.442.113.88.298 1.317.557.435.259.825.614 1.171 1.064.235.315.442.68.622 1.097.18.417.339.85.477 1.3a16.313 16.313 0 0 1 .58 4.828c0 .293-.041.518-.124.675a.503.503 0 0 1-.249.202 8.064 8.064 0 0 1-.87.288c-.43.123-.885.242-1.37.354l-1.367.32c-.43.102-.719.176-.871.22a.432.432 0 0 1-.208.017c-.069-.01-.117-.061-.145-.152-.027-.045-.049-.146-.062-.303-.014-.157-.024-.321-.031-.49l-.02-.473a2.436 2.436 0 0 0-.032-.32 3.226 3.226 0 0 0-.186-.642 4.024 4.024 0 0 0-.291-.574c-.152-.247-.322-.422-.508-.523-.187-.101-.373-.135-.56-.101a1.09 1.09 0 0 0-.539.287c-.172.157-.321.383-.445.675-.208.473-.273 1.002-.197 1.587.076.585.266 1.035.57 1.35.138.135.28.253.425.354.145.102.293.186.446.253a7.226 7.226 0 0 0 1.876.659c.629.123 1.254.287 1.876.49.386.112.77.281 1.15.506.38.226.729.53 1.047.912.331.428.577.95.736 1.57a8.54 8.54 0 0 1 .259 1.958c.013.687-.042 1.38-.166 2.076a8.976 8.976 0 0 1-.539 1.89 7.494 7.494 0 0 1-.839 1.47 7.208 7.208 0 0 1-1.026 1.13 5.551 5.551 0 0 1-1.71 1.048c-.601.224-1.206.371-1.814.438ZM46.562 38.537c-.36.023-.718.028-1.078.017a7.095 7.095 0 0 1-1.078-.118c-.153-.046-.25-.22-.29-.523a10.5 10.5 0 0 1-.084-.827 215.07 215.07 0 0 1-.342-8.188c-.062-2.735-.08-5.464-.052-8.188a146.029 146.029 0 0 1 .042-2.785c.013-.574.034-1.119.061-1.637.028-.518.07-.878.124-1.08.097-.338.228-.585.394-.743.083-.067.224-.13.425-.185.2-.056.415-.107.643-.152.227-.045.445-.085.653-.118.207-.034.359-.05.456-.05a18.66 18.66 0 0 1 2.85-.119c.947.034 1.884.22 2.81.558.318.113.635.259.953.439.318.18.615.404.892.675.304.315.58.697.83 1.148.248.45.448.934.6 1.451.207.698.339 1.447.394 2.246.055.8.047 1.581-.02 2.346-.153 1.374-.457 2.6-.913 3.68a9.448 9.448 0 0 1-1.16 2.06A7.041 7.041 0 0 1 52.2 29.93a5.667 5.667 0 0 1-1.794.978c-.63.203-1.254.35-1.876.44.013.202.035.596.062 1.181a424.378 424.378 0 0 1 .156 3.748c.02.585.031.978.031 1.182.027.247.013.45-.042.607a.41.41 0 0 1-.207.203c-.07.045-.197.079-.384.101-.187.023-.383.045-.59.067a78.3 78.3 0 0 0-.602.068 4.256 4.256 0 0 1-.393.034l.001-.002Zm1.721-18.603a212.063 212.063 0 0 0 .083 5.908 15.256 15.256 0 0 0 1.575-.303c.442-.136.843-.428 1.203-.878.193-.247.359-.534.497-.86.138-.327.238-.67.3-1.03s.076-.72.042-1.081a2.959 2.959 0 0 0-.28-1.013 1.76 1.76 0 0 0-.674-.76 2.666 2.666 0 0 0-.912-.337 2.6 2.6 0 0 0-.974.017c-.325.067-.612.18-.86.337ZM70.96 38.064c-.58.09-1.16.136-1.74.136-.58 0-1.161-.012-1.742-.034-.18 0-.294-.157-.342-.473a15.415 15.415 0 0 1-.114-.912c-.166-2.25-.331-4.479-.497-6.684a259.541 259.541 0 0 1-.415-6.685c-.041-.81-.076-1.62-.103-2.431-.028-.81-.042-1.61-.042-2.397v-.54c0-.225.007-.457.02-.692a8.46 8.46 0 0 1 .062-.659c.028-.202.07-.348.124-.439.055-.067.146-.146.27-.236a4.222 4.222 0 0 1 .83-.455c.138-.056.241-.096.31-.118.442-.18.892-.338 1.348-.473a7.384 7.384 0 0 1 1.368-.27c.111-.023.225-.028.342-.017a.547.547 0 0 1 .322.152c.166.158.37.49.611.996a25.9 25.9 0 0 1 .715 1.654c.235.596.453 1.176.654 1.739l.445 1.249c.373 1.058.743 2.11 1.11 3.157.366 1.046.728 2.099 1.088 3.157a486.161 486.161 0 0 0-.124-8.846 1.634 1.634 0 0 1 0-.371.783.783 0 0 1 .104-.338c.083-.157.2-.236.352-.236a45.08 45.08 0 0 1 1.752-.102 43.563 43.563 0 0 0 1.752-.1h.228c.083 0 .151.045.207.134.07.113.104.333.104.659s.007.569.02.726c.042 2.881.031 5.74-.03 8.575a187.4 187.4 0 0 1-.385 8.542 6.215 6.215 0 0 0-.03.524c-.008.236-.021.49-.042.76l-.062.776c-.02.248-.052.417-.093.507a.258.258 0 0 1-.115.1.324.324 0 0 1-.134.035c-.111 0-.322-.005-.632-.017a401.69 401.69 0 0 0-2.022-.068c-.318-.01-.525-.017-.622-.017-.069 0-.165-.016-.29-.05-.124-.034-.2-.096-.228-.186a6.755 6.755 0 0 1-.197-.523c-.09-.259-.18-.534-.27-.827-.09-.292-.175-.568-.258-.827a8.977 8.977 0 0 1-.166-.558 356.179 356.179 0 0 0-1.606-5.03c-.546-1.666-1.11-3.32-1.69-4.963.013.27.03.726.052 1.368.02.641.048 1.38.083 2.211.035.833.073 1.717.115 2.65.041.934.079 1.823.114 2.668.034.844.062 1.587.083 2.228.02.641.038 1.086.052 1.334.013.248-.056.393-.208.438a3.454 3.454 0 0 1-.435.101l-.002-.002Z"/></g><ellipse cx="64.2" cy="7.98" rx="5.2" ry="4.68" fill="#1A1A1A"/><path d="M64.592 11.588c1.772 0 3.209-1.472 3.209-3.289 0-1.817-1.437-3.29-3.21-3.29-1.771 0-3.208 1.473-3.208 3.29s1.436 3.29 3.209 3.29Z" fill="#FFF800"/><path d="M64.873 11.588c1.772 0 3.209-1.472 3.209-3.289 0-1.817-1.437-3.29-3.209-3.29s-3.209 1.473-3.209 3.29 1.437 3.29 3.209 3.29Z" fill="url(#p)"/><defs><linearGradient id="i" x1="11.301" y1="26.656" x2="17.396" y2="24.545" gradientUnits="userSpaceOnUse"><stop stop-color="#FFA300"/><stop offset="1" stop-color="#FFDA00"/></linearGradient><linearGradient id="a" x1="108.732" y1="39.288" x2="108.732" y2="14.978" gradientUnits="userSpaceOnUse"><stop stop-color="#E68730"/><stop offset="1" stop-color="#FDDD64"/></linearGradient><linearGradient id="c" x1="108.733" y1="39.288" x2="108.733" y2="14.978" gradientUnits="userSpaceOnUse"><stop stop-color="#E68730"/><stop offset="1" stop-color="#FDDD64"/></linearGradient><linearGradient id="d" x1="108.731" y1="39.288" x2="108.731" y2="14.978" gradientUnits="userSpaceOnUse"><stop stop-color="#E68730"/><stop offset="1" stop-color="#FDDD64"/></linearGradient><linearGradient id="e" x1="101.205" y1="11.589" x2="101.205" y2="5.011" gradientUnits="userSpaceOnUse"><stop stop-color="#E68730"/><stop offset="1" stop-color="#FDDD64"/></linearGradient><linearGradient id="f" x1="6.954" y1="9.728" x2="8.954" y2="35.809" gradientUnits="userSpaceOnUse"><stop stop-color="#FFA300"/><stop offset="1" stop-color="#FFDA00"/></linearGradient><linearGradient id="g" x1="28.546" y1="3.708" x2="43.476" y2="12.237" gradientUnits="userSpaceOnUse"><stop stop-color="#FFA300"/><stop offset="1" stop-color="#FFDA00"/></linearGradient><linearGradient id="h" x1="18.486" y1="1.412" x2="32.285" y2="30.571" gradientUnits="userSpaceOnUse"><stop stop-color="#298A31"/><stop offset="1" stop-color="#1A1C1F"/></linearGradient><linearGradient id="b" x1="108.733" y1="39.288" x2="108.733" y2="14.978" gradientUnits="userSpaceOnUse"><stop stop-color="#E68730"/><stop offset="1" stop-color="#FDDD64"/></linearGradient><linearGradient id="j" x1="24.203" y1="21.154" x2="30.299" y2="19.042" gradientUnits="userSpaceOnUse"><stop stop-color="#FFA300"/><stop offset="1" stop-color="#FFDA00"/></linearGradient><linearGradient id="k" x1="36.792" y1="16.665" x2="42.888" y2="14.554" gradientUnits="userSpaceOnUse"><stop stop-color="#FFA300"/><stop offset="1" stop-color="#FFDA00"/></linearGradient><linearGradient id="l" x1="54.276" y1="13.38" x2="54.276" y2="39.521" gradientUnits="userSpaceOnUse"><stop stop-color="#B5E916"/><stop offset="1" stop-color="#39B517"/></linearGradient><linearGradient id="m" x1="54.276" y1="13.38" x2="54.276" y2="39.521" gradientUnits="userSpaceOnUse"><stop stop-color="#B5E916"/><stop offset="1" stop-color="#39B517"/></linearGradient><linearGradient id="n" x1="54.274" y1="13.38" x2="54.274" y2="39.521" gradientUnits="userSpaceOnUse"><stop stop-color="#B5E916"/><stop offset="1" stop-color="#39B517"/></linearGradient><linearGradient id="o" x1="54.274" y1="13.38" x2="54.274" y2="39.521" gradientUnits="userSpaceOnUse"><stop stop-color="#B5E916"/><stop offset="1" stop-color="#39B517"/></linearGradient><linearGradient id="p" x1="63.694" y1="11.361" x2="66.162" y2="5.289" gradientUnits="userSpaceOnUse"><stop stop-color="#298A31"/><stop offset="1" stop-color="#B5E916"/></linearGradient></defs></svg>